HIERARCHY
ROOT Hips
{
 OFFSET 0.000000 0.000000 0.000000
 CHANNELS 6 Xposition Yposition Zposition Yrotation Xrotation Zrotation
 JOINT Chest
 {
  OFFSET 0.000000 9.585900 0.002600
  CHANNELS 3 Yrotation Xrotation Zrotation
  JOINT Chest2
  {
   OFFSET 0.000000 9.601200 -0.005300
   CHANNELS 3 Yrotation Xrotation Zrotation
   JOINT Chest3
   {
    OFFSET 0.000000 9.561800 0.000000
    CHANNELS 3 Yrotation Xrotation Zrotation
    JOINT Chest4
    {
     OFFSET 0.000000 9.552100 0.000000
     CHANNELS 3 Yrotation Xrotation Zrotation
     JOINT Neck
     {
      OFFSET 0.000000 14.453000 0.000000
      CHANNELS 3 Yrotation Xrotation Zrotation
      JOINT Head
      {
       OFFSET 0.000000 8.936500 -0.011300
       CHANNELS 3 Yrotation Xrotation Zrotation
       End Site
       {
        OFFSET 0.000000 17.073600 -0.006000
       }
      }
     }
     JOINT RightCollar
     {
      OFFSET -2.921100 9.558500 0.000000
      CHANNELS 3 Yrotation Xrotation Zrotation
      JOINT RightShoulder
      {
       OFFSET -13.519700 0.000000 0.000000
       CHANNELS 3 Yrotation Xrotation Zrotation
       JOINT RightElbow
       {
        OFFSET 0.000000 -29.696600 0.000000
        CHANNELS 3 Yrotation Xrotation Zrotation
        JOINT RightWrist
        {
         OFFSET 0.000000 -24.004700 0.000000
         CHANNELS 3 Yrotation Xrotation Zrotation
         End Site
         {
          OFFSET 0.000000 -17.728500 0.000000
         }
        }
       }
      }
     }
     JOINT LeftCollar
     {
      OFFSET 2.921100 9.558500 0.000000
      CHANNELS 3 Yrotation Xrotation Zrotation
      JOINT LeftShoulder
      {
       OFFSET 13.519700 0.000000 0.000000
       CHANNELS 3 Yrotation Xrotation Zrotation
       JOINT LeftElbow
       {
        OFFSET 0.000000 -29.696600 0.000000
        CHANNELS 3 Yrotation Xrotation Zrotation
        JOINT LeftWrist
        {
         OFFSET 0.000000 -24.004700 0.000000
         CHANNELS 3 Yrotation Xrotation Zrotation
         End Site
         {
          OFFSET 0.000000 -17.728500 0.000000
         }
        }
       }
      }
     }
    }
   }
  }
 }
 JOINT RightHip
 {
  OFFSET -7.771700 -0.012900 -0.001300
  CHANNELS 3 Yrotation Xrotation Zrotation
  JOINT RightKnee
  {
   OFFSET 0.000000 -40.869800 0.001200
   CHANNELS 3 Yrotation Xrotation Zrotation
   JOINT RightAnkle
   {
    OFFSET 0.000000 -39.717900 0.002100
    CHANNELS 3 Yrotation Xrotation Zrotation
    JOINT RightToe
    {
     OFFSET 0.000000 -4.965400 11.033500
     CHANNELS 3 Yrotation Xrotation Zrotation
     End Site
     {
      OFFSET 0.000000 -1.423100 5.872300
     }
    }
   }
  }
 }
 JOINT LeftHip
 {
  OFFSET 7.771700 -0.012900 -0.001300
  CHANNELS 3 Yrotation Xrotation Zrotation
  JOINT LeftKnee
  {
   OFFSET 0.000000 -40.869800 0.001200
   CHANNELS 3 Yrotation Xrotation Zrotation
   JOINT LeftAnkle
   {
    OFFSET 0.000000 -39.717900 0.002100
    CHANNELS 3 Yrotation Xrotation Zrotation
    JOINT LeftToe
    {
     OFFSET 0.000000 -4.965400 11.033500
     CHANNELS 3 Yrotation Xrotation Zrotation
     End Site
     {
      OFFSET 0.000000 -1.423100 5.872300
     }
    }
   }
  }
 }
}
MOTION
Frames: 9
Frame Time: 0.008333
-10.146475 46.576220 23.727339 175.368175 -31.040352 -2.485659 0.712161 19.191163 1.494576 0.061562 2.278720 0.194454 0.105806 3.755864 0.322123 0.644558 16.597766 1.511779 -0.378380 15.638302 -0.938948 -0.266848 -6.789266 -1.666873 1.258930 0.242420 -1.526270 7.967914 -10.225641 -18.386151 -46.897500 -54.449409 95.372860 -1.355447 4.313370 -17.753572 -0.210533 -0.127717 2.532351 -3.393211 -6.524925 14.342614 93.059577 -75.519372 -128.697983 -5.383002 13.303395 2.698377 -3.583140 -55.967494 -5.841714 -171.490177 78.727375 -162.016393 -12.708065 -15.069012 -5.181399 0.012269 -0.140526 0.063272 0.222828 -57.953798 12.201859 -110.184356 83.057301 -114.476879 4.019038 -5.104130 4.519376 -0.043904 0.186371 0.036406
-10.152759 46.570153 23.733846 175.355587 -30.997377 -2.491078 0.696668 19.171485 1.496590 0.024694 2.298643 0.194410 0.135423 3.735149 0.321359 0.579226 16.612607 1.512761 -0.325524 15.629766 -0.939775 -0.242472 -6.778606 -1.643844 1.305679 0.207838 -1.574007 7.923756 -10.192282 -18.431230 -46.915155 -54.425714 95.434944 -1.426642 4.335033 -17.792697 -0.131353 -0.162960 2.506844 -3.512963 -6.525108 14.333840 93.265478 -75.571842 -128.929481 -5.400561 13.335909 2.790037 -3.582567 -56.012635 -5.820035 -171.373819 78.730998 -161.920582 -12.643347 -15.027485 -5.188569 -0.046886 -0.149520 0.064335 0.239578 -57.999290 12.212731 -110.100280 83.053954 -114.406415 3.875240 -5.120768 4.534722 -0.004598 0.225951 0.054197
-10.159954 46.566614 23.736647 175.349656 -30.978117 -2.488859 0.667818 19.173813 1.486358 0.024243 2.295843 0.193077 0.128377 3.737859 0.322742 0.602554 16.597346 1.508679 -0.344100 15.650598 -0.912728 -0.216510 -6.778061 -1.634605 1.241793 0.194103 -1.603624 7.912716 -10.150543 -18.461848 -46.941659 -54.426684 95.499060 -1.458824 4.348101 -17.811892 -0.182307 -0.168672 2.525993 -3.581734 -6.522281 14.301463 93.496514 -75.623265 -129.177486 -5.421751 13.375434 2.875840 -3.572228 -56.034715 -5.814083 -171.317727 78.736952 -161.873383 -12.675758 -15.001914 -5.179511 -0.029576 -0.161114 0.069977 0.251090 -58.018822 12.211527 -110.042697 83.060980 -114.367690 3.774749 -5.103627 4.559101 0.040107 0.226564 0.055572
-10.165404 46.563631 23.739489 175.338685 -30.960101 -2.489318 0.647266 19.173514 1.480931 0.030953 2.290489 0.193148 0.115744 3.745798 0.322388 0.585912 16.600998 1.504690 -0.326562 15.652651 -0.894915 -0.186839 -6.793808 -1.657036 1.268097 0.168624 -1.626873 7.857967 -10.110199 -18.503764 -46.974843 -54.459789 95.558579 -1.479133 4.353962 -17.819582 -0.201742 -0.192860 2.535253 -3.642221 -6.518047 14.261818 93.726339 -75.674109 -129.416414 -5.395068 13.420329 2.987404 -3.556748 -56.056503 -5.811292 -171.232234 78.736580 -161.793586 -12.666348 -14.970744 -5.172348 -0.021135 -0.170136 0.057844 0.276026 -58.035741 12.220595 -109.930244 83.056639 -114.265608 3.690228 -5.096422 4.577804 0.095594 0.234315 0.062821
-10.167228 46.561939 23.741331 175.321979 -30.952694 -2.501843 0.639029 19.179305 1.491853 0.051646 2.280875 0.194316 0.089347 3.759342 0.321679 0.569571 16.606214 1.500645 -0.310557 15.653249 -0.877818 -0.163079 -6.784583 -1.625184 1.265292 0.140550 -1.659752 7.836251 -10.071513 -18.531024 -47.011713 -54.524278 95.612786 -1.494828 4.360761 -17.832770 -0.220737 -0.215824 2.539381 -3.700967 -6.514109 14.219313 93.940325 -75.723026 -129.632497 -5.377457 13.465521 3.086335 -3.572047 -56.062373 -5.770047 -171.179047 78.745176 -161.745334 -12.675740 -14.945623 -5.180307 -0.034380 -0.172793 0.051143 0.280841 -58.044461 12.255744 -109.865074 83.045666 -114.198565 3.646140 -5.095528 4.576164 0.127184 0.240362 0.075171
-10.169095 46.559652 23.744658 175.297973 -30.936365 -2.504645 0.633133 19.173715 1.492390 0.049740 2.281896 0.194355 0.086405 3.760987 0.321589 0.531301 16.617294 1.492728 -0.264861 15.645963 -0.869564 -0.155144 -6.743828 -1.529763 1.281490 0.113282 -1.695334 7.823026 -10.038406 -18.555492 -47.061684 -54.558577 95.705975 -1.451754 4.374870 -17.882239 -0.211898 -0.242823 2.539958 -3.761840 -6.510643 14.174965 94.085029 -75.770770 -129.744198 -5.424361 13.495801 3.099004 -3.573585 -56.078153 -5.742766 -171.107374 78.751906 -161.676755 -12.662017 -14.924731 -5.190244 -0.027093 -0.178852 0.054233 0.302329 -58.064287 12.278260 -109.847593 83.049791 -114.185698 3.617383 -5.089212 4.593354 0.131317 0.240009 0.074339
-10.170543 46.557573 23.747970 175.277420 -30.921353 -2.505652 0.624439 19.166964 1.488587 0.020485 2.289097 0.189224 0.111119 3.756783 0.323687 0.541763 16.613792 1.491715 -0.249043 15.644087 -0.864508 -0.156506 -6.704361 -1.450425 1.256929 0.097893 -1.716348 7.836716 -10.017870 -18.559500 -47.074819 -54.685377 95.678764 -1.471854 4.375405 -17.888318 -0.247466 -0.252623 2.549310 -3.819004 -6.514641 14.130573 94.110026 -75.819341 -129.682295 -5.486827 13.493588 3.046380 -3.574131 -56.093018 -5.720724 -171.068708 78.761815 -161.640850 -12.661263 -14.902302 -5.195829 -0.015230 -0.183040 0.047542 0.351796 -58.083407 12.293077 -109.742658 83.035571 -114.086672 3.585968 -5.078708 4.623987 0.144043 0.238638 0.075989
-10.171545 46.556002 23.750580 175.249860 -30.912471 -2.500316 0.624089 19.163459 1.485765 0.024656 2.286534 0.188816 0.102643 3.762662 0.322039 0.528613 16.618274 1.483115 -0.232486 15.652450 -0.840733 -0.136799 -6.684865 -1.412025 1.260484 0.077271 -1.737440 7.841219 -9.996917 -18.563511 -47.099774 -54.807460 95.668438 -1.490096 4.385878 -17.908854 -0.318662 -0.273759 2.549647 -3.810308 -6.515046 14.092564 94.303989 -75.847810 -129.939269 -5.488579 13.558099 3.129526 -3.564365 -56.102338 -5.706578 -171.006281 78.768981 -161.580382 -12.643736 -14.879963 -5.206441 -0.035788 -0.187591 0.043309 0.373256 -58.092891 12.309615 -109.712502 83.032834 -114.063463 3.586588 -5.077441 4.639193 0.140126 0.238518 0.071159
-10.172377 46.555225 23.751783 175.225486 -30.913614 -2.493227 0.617606 19.166833 1.477442 0.045350 2.284793 0.191922 0.078862 3.765742 0.317757 0.519842 16.620422 1.476100 -0.235458 15.678563 -0.802023 -0.100963 -6.670325 -1.394343 1.241416 0.055523 -1.770651 7.844505 -9.956343 -18.578070 -47.161824 -54.874375 95.737642 -1.487816 4.408990 -17.953816 -0.334792 -0.281078 2.547383 -3.803605 -6.518172 14.074460 94.366603 -75.848000 -130.062593 -5.501618 13.593506 3.167847 -3.536226 -56.103167 -5.710393 -171.017064 78.770615 -161.586248 -12.631679 -14.860820 -5.214232 -0.031931 -0.194944 0.040269 0.397446 -58.091850 12.319764 -109.701526 83.030265 -114.058862 3.589532 -5.078141 4.652374 0.128461 0.237678 0.067508
